<svg width="66" height="66" viewBox="0 0 66 66" fill="none" xmlns="http://www.w3.org/2000/svg" xmlns:xlink="http://www.w3.org/1999/xlink">
<path d="M32,2L33.176,0.382L32,-0.472L30.824,0.382L32,2ZM62.434,24.111L64.336,24.729L64.785,23.348L63.609,22.493L62.434,24.111ZM50.809,59.889L50.809,61.889L52.262,61.889L52.711,60.507L50.809,59.889ZM13.191,59.889L11.289,60.507L11.738,61.889L13.191,61.889L13.191,59.889ZM1.566,24.111L0.391,22.493L-0.785,23.348L-0.336,24.729L1.566,24.111ZM30.824,3.618L61.258,25.729L63.609,22.493L33.176,0.382L30.824,3.618ZM60.532,23.493L48.907,59.271L52.711,60.507L64.336,24.729L60.532,23.493ZM50.809,57.889L13.191,57.889L13.191,61.889L50.809,61.889L50.809,57.889ZM15.093,59.271L3.468,23.493L-0.336,24.729L11.289,60.507L15.093,59.271ZM2.742,25.729L33.176,3.618L30.824,0.382L0.391,22.493L2.742,25.729Z" fill="#FFFFFF"/>
<path d="M32,14L33.176,12.382L32,11.528L30.824,12.382L32,14ZM51.021,27.82L52.923,28.438L53.372,27.056L52.197,26.202L51.021,27.82ZM43.756,50.18L43.756,52.18L45.209,52.18L45.658,50.798L43.756,50.18ZM20.244,50.18L18.342,50.798L18.791,52.18L20.244,52.18L20.244,50.18ZM12.979,27.82L11.803,26.202L10.628,27.056L11.077,28.438L12.979,27.82ZM30.824,15.618L49.846,29.438L52.197,26.202L33.176,12.382L30.824,15.618ZM49.119,27.202L41.854,49.562L45.658,50.798L52.923,28.438L49.119,27.202ZM43.756,48.18L20.244,48.18L20.244,52.18L43.756,52.18L43.756,48.18ZM22.146,49.562L14.881,27.202L11.077,28.438L18.342,50.798L22.146,49.562ZM14.154,29.438L33.176,15.618L30.824,12.382L11.803,26.202L14.154,29.438Z" fill="#FF6565"/>
<path d="M32,26L39.608,31.528L36.702,40.472L27.298,40.472L24.392,31.528L32,26Z" clip-rule="evenodd" fill-rule="evenodd" fill="#FFFFFF"/>
</svg>
