<svg width="228" height="24" viewBox="0 0 228 24" fill="none" xmlns="http://www.w3.org/2000/svg" xmlns:xlink="http://www.w3.org/1999/xlink">
<path d="M166.761,10.448L166.761,22.472L161.109,22.472L161.109,10.448C161.109,4.436 165.717,-0.892 171.873,-0.892C178.029,-0.892 182.637,4.436 182.637,10.448L182.637,22.472L176.985,22.472L176.985,10.448C176.985,7.568 174.897,4.796 171.873,4.796C168.849,4.796 166.761,7.568 166.761,10.448ZM49.581,22.472L49.581,17.324L59.841,17.324L59.841,22.472L65.529,22.472L65.529,10.52C65.529,4.22 60.669,-0.856 54.693,-0.856C48.717,-0.856 43.857,4.22 43.857,10.52L43.857,22.472L49.581,22.472ZM5.409,13.94L5.409,22.472L-0.315,22.472L-0.315,-0.316L5.409,-0.316L5.409,8.216L14.265,8.216L14.265,-0.316L19.989,-0.316L19.989,22.472L14.265,22.472L14.265,13.94L5.409,13.94ZM42.057,16.748L42.057,22.472L32.625,22.472C26.433,22.472 21.789,17.108 21.789,11.096C21.789,5.048 26.433,-0.316 32.625,-0.316L42.057,-0.316L42.057,5.408L32.625,5.408C30.717,5.408 29.061,6.596 28.197,8.216L37.773,8.216L37.773,13.94L28.197,13.94C29.061,15.596 30.717,16.748 32.625,16.748L42.057,16.748ZM49.581,11.636L59.841,11.636L59.841,10.52C59.841,7.388 57.537,4.832 54.693,4.832C51.885,4.832 49.581,7.388 49.581,10.52L49.581,11.636ZM78.165,22.472C84.141,22.472 89.001,17.36 89.001,11.096C89.001,4.796 84.141,-0.316 78.165,-0.316L67.329,-0.316L67.329,22.472L78.165,22.472ZM73.053,16.748L78.165,16.748C81.009,16.748 83.313,14.228 83.313,11.096C83.313,7.964 81.009,5.408 78.165,5.408L73.053,5.408L73.053,16.748ZM96.453,22.472L96.453,17.684L103.437,17.684C108.333,17.684 111.969,13.544 111.969,8.792C111.969,4.04 108.333,-0.136 103.437,-0.136L90.801,-0.136L90.801,22.472L96.453,22.472ZM96.453,12.032L103.437,12.032C105.165,12.032 106.317,10.376 106.317,8.792C106.317,7.208 105.165,5.516 103.437,5.516L96.453,5.516L96.453,12.032ZM119.493,22.472L119.493,13.94L128.349,13.94L128.349,22.472L134.073,22.472L134.073,-0.316L128.349,-0.316L128.349,8.216L119.493,8.216L119.493,-0.316L113.769,-0.316L113.769,22.472L119.493,22.472ZM159.309,11.204C159.309,17.684 154.197,23.228 147.609,23.228C141.021,23.228 135.873,17.684 135.873,11.204C135.873,4.688 141.021,-0.82 147.609,-0.82C154.197,-0.82 159.309,4.688 159.309,11.204ZM147.609,17.54C144.117,17.54 141.525,14.552 141.525,11.204C141.525,7.82 144.153,4.832 147.609,4.832C151.065,4.832 153.657,7.82 153.657,11.204C153.657,14.552 151.065,17.54 147.609,17.54ZM204.705,22.472L204.705,16.748L195.273,16.748C193.365,16.748 191.709,15.596 190.845,13.94L200.421,13.94L200.421,8.216L190.845,8.216C191.709,6.596 193.365,5.408 195.273,5.408L204.705,5.408L204.705,-0.316L195.273,-0.316C189.081,-0.316 184.437,5.048 184.437,11.096C184.437,17.108 189.081,22.472 195.273,22.472L204.705,22.472ZM217.845,16.676C216.693,19.736 213.489,22.472 210.105,22.472L206.505,22.472L206.505,16.82L210.105,16.82C211.041,16.82 212.229,15.488 212.517,14.696L215.901,5.66C217.089,2.456 220.509,-0.136 223.965,-0.136L227.925,-0.136L227.925,5.516L223.965,5.516C222.885,5.516 221.553,6.668 221.193,7.64L217.845,16.676Z" clip-rule="evenodd" fill-rule="evenodd" fill="#FFFFFF"/>
</svg>
