<svg width="124" height="124" viewBox="0 0 124 124" fill="none" xmlns="http://www.w3.org/2000/svg" xmlns:xlink="http://www.w3.org/1999/xlink">
<path d="M110.045,12.263C101.93,4.43 91.12,0.075 79.608,0C69.946,-0.059 60.793,2.883 53.11,8.513C45.658,13.975 40.119,21.753 37.511,30.413C35.668,36.538 36.425,43.215 39.7,49.722L40.174,50.678C46.697,64.039 48.511,76.472 46.435,93.291C45.289,102.584 47.488,110.24 52.796,115.432C57.686,120.214 64.323,122.88 71.215,122.88C71.756,122.88 72.299,122.864 72.842,122.83C79.259,122.439 85.278,119.734 89.788,115.212C94.324,110.666 96.93,104.696 97.127,98.402C97.191,96.354 97.001,94.31 96.565,92.325L96.465,91.826C95.516,86.492 98.112,80.907 103.036,77.794C115.602,69.851 123.013,56.42 122.86,41.867C122.741,30.64 118.19,20.127 110.045,12.263ZM57.367,14.321C63.793,9.611 71.47,7.161 79.562,7.2C89.216,7.263 98.266,10.9 105.044,17.443C111.792,23.958 115.563,32.659 115.66,41.943C115.787,53.981 109.63,65.108 99.189,71.708L98.542,72.132C95.138,74.448 92.485,77.598 90.844,81.282C89.056,85.297 88.602,89.65 89.533,93.875L89.673,94.58C89.881,95.76 89.968,96.968 89.93,98.177C89.791,102.637 87.93,106.881 84.691,110.127C81.426,113.401 77.062,115.36 72.404,115.643C66.962,115.974 61.653,114.022 57.831,110.284C54.138,106.673 52.708,101.252 53.582,94.173C55.194,81.113 55.569,65.234 46.131,46.485L45.943,46.104C44.316,42.735 42.822,37.753 44.407,32.489C46.565,25.316 51.168,18.863 57.367,14.321ZM22.26,49.958C23.643,48.53 25.923,48.494 27.35,49.877C34.313,56.623 38.147,65.615 38.147,75.195C38.147,84.775 34.313,93.767 27.351,100.513C26.651,101.191 25.748,101.528 24.846,101.528C23.905,101.528 22.966,101.162 22.26,100.433C20.876,99.006 20.912,96.727 22.34,95.343C27.891,89.964 30.947,82.809 30.947,75.195C30.947,67.582 27.891,60.427 22.34,55.048C20.912,53.664 20.876,51.385 22.26,49.958ZM16.829,60.072C15.4,58.688 13.121,58.725 11.739,60.153C10.355,61.581 10.39,63.86 11.818,65.243C14.569,67.908 16.083,71.442 16.083,75.195C16.083,78.949 14.569,82.483 11.818,85.148C10.39,86.531 10.355,88.81 11.739,90.238C12.445,90.967 13.383,91.333 14.324,91.333C15.226,91.333 16.13,90.996 16.829,90.319C20.991,86.286 23.283,80.915 23.283,75.195C23.283,69.476 20.991,64.105 16.829,60.072ZM1.062,67.598C2.473,66.197 4.752,66.204 6.154,67.614C10.076,71.562 10.076,77.985 6.154,81.933C5.451,82.641 4.525,82.995 3.6,82.995C2.682,82.995 1.765,82.647 1.062,81.949C-0.269,80.625 -0.35,78.519 0.826,77.101L1.046,76.858C2.117,75.781 2.184,74.069 1.247,72.913L1.046,72.689C-0.355,71.279 -0.348,68.999 1.062,67.598ZM105.267,42.309C105.267,28.381 93.625,17.049 79.314,17.049L78.693,17.056C64.669,17.378 53.361,28.583 53.361,42.309L53.377,42.69C53.472,43.696 53.987,44.623 54.805,45.234C55.713,45.914 56.889,46.125 57.977,45.805C60.072,45.189 62.47,45.407 64.39,46.388C67.252,47.85 69.04,50.903 68.841,53.983C68.642,57.031 66.507,59.838 63.528,60.967L63.242,61.089C61.575,61.89 60.77,63.848 61.437,65.609C61.983,67.048 63.352,67.934 64.805,67.934C65.229,67.934 65.66,67.858 66.08,67.7C71.65,65.588 75.647,60.264 76.025,54.45C76.409,48.543 73.049,42.727 67.665,39.976C65.616,38.929 63.337,38.354 61.034,38.268C62.945,30.249 70.416,24.249 79.314,24.249C89.654,24.249 98.066,32.351 98.066,42.309C98.066,44.298 99.679,45.909 101.666,45.909C103.655,45.909 105.267,44.298 105.267,42.309Z" clip-rule="evenodd" fill-rule="evenodd" fill="#FF6565"/>
</svg>
