<svg width="124" height="124" viewBox="0 0 124 124" fill="none" xmlns="http://www.w3.org/2000/svg" xmlns:xlink="http://www.w3.org/1999/xlink">
<path d="M79.608,0.001C91.12,0.075 101.93,4.43 110.045,12.263C118.19,20.127 122.741,30.64 122.859,41.867C123.013,56.42 115.602,69.851 103.036,77.794C97.957,81.004 95.356,86.843 96.564,92.325C97.001,94.31 97.191,96.354 97.127,98.402C96.93,104.696 94.324,110.666 89.788,115.212C85.278,119.734 79.259,122.439 72.842,122.83C72.299,122.864 71.756,122.88 71.215,122.88C64.323,122.88 57.686,120.214 52.796,115.432C47.488,110.24 45.289,102.584 46.435,93.291C48.561,76.072 46.609,63.449 39.699,49.722C36.425,43.215 35.668,36.538 37.511,30.413C40.118,21.753 45.658,13.975 53.11,8.513C60.793,2.883 69.946,-0.059 79.608,0.001ZM90.844,81.282C92.587,77.367 95.473,74.056 99.188,71.708C109.629,65.108 115.787,53.981 115.66,41.943C115.563,32.659 111.792,23.958 105.044,17.443C98.266,10.9 89.216,7.263 79.562,7.201C71.469,7.161 63.793,9.611 57.366,14.321C51.168,18.863 46.565,25.316 44.406,32.489C42.761,37.956 44.436,43.118 46.131,46.485C55.568,65.234 55.193,81.113 53.582,94.173C52.708,101.252 54.138,106.673 57.831,110.284C61.653,114.022 66.962,115.974 72.404,115.643C77.061,115.36 81.426,113.401 84.691,110.127C87.93,106.881 89.791,102.637 89.93,98.177C89.976,96.726 89.841,95.277 89.533,93.875C88.602,89.65 89.056,85.297 90.844,81.282ZM79.313,17.049C65.003,17.049 53.361,28.381 53.361,42.309L53.361,42.352C53.361,43.486 53.896,44.555 54.804,45.234C55.713,45.914 56.888,46.125 57.977,45.805C60.072,45.189 62.469,45.407 64.39,46.388C67.251,47.85 69.04,50.903 68.841,53.983C68.642,57.031 66.507,59.838 63.528,60.967C61.669,61.672 60.733,63.75 61.437,65.609C61.983,67.048 63.351,67.934 64.805,67.934C65.228,67.934 65.66,67.858 66.08,67.7C71.65,65.588 75.647,60.264 76.025,54.45C76.409,48.543 73.049,42.727 67.665,39.976C65.616,38.929 63.336,38.354 61.034,38.268C62.945,30.249 70.416,24.249 79.313,24.249C89.654,24.249 98.066,32.351 98.066,42.309C98.066,44.298 99.679,45.909 101.666,45.909C103.655,45.909 105.267,44.298 105.267,42.309C105.267,28.381 93.624,17.049 79.313,17.049ZM22.26,49.958C23.643,48.53 25.923,48.494 27.35,49.877C34.312,56.623 38.147,65.615 38.147,75.195C38.147,84.775 34.312,93.767 27.351,100.513C26.651,101.191 25.747,101.528 24.846,101.528C23.905,101.528 22.966,101.162 22.26,100.433C20.876,99.006 20.912,96.727 22.34,95.343C27.891,89.964 30.947,82.809 30.947,75.195C30.947,67.582 27.891,60.427 22.34,55.048C20.912,53.664 20.876,51.385 22.26,49.958ZM1.062,67.598C-0.348,68.999 -0.355,71.279 1.046,72.689C2.188,73.838 2.188,75.709 1.046,76.858C-0.355,78.268 -0.348,80.547 1.062,81.949C1.764,82.647 2.682,82.995 3.6,82.995C4.525,82.995 5.451,82.641 6.154,81.933C10.076,77.985 10.076,71.562 6.154,67.614C4.752,66.204 2.473,66.197 1.062,67.598ZM11.738,60.153C13.121,58.725 15.4,58.688 16.829,60.072C20.991,64.105 23.283,69.476 23.283,75.195C23.283,80.915 20.991,86.286 16.829,90.319C16.13,90.996 15.226,91.333 14.324,91.333C13.383,91.333 12.444,90.967 11.738,90.238C10.355,88.81 10.39,86.531 11.818,85.148C14.569,82.483 16.083,78.949 16.083,75.195C16.083,71.442 14.569,67.908 11.818,65.243C10.39,63.86 10.355,61.581 11.738,60.153Z" clip-rule="evenodd" fill-rule="evenodd" fill="#FF6565"/>
</svg>
