<svg width="322" height="64" viewBox="0 0 322 64" fill="none" xmlns="http://www.w3.org/2000/svg" xmlns:xlink="http://www.w3.org/1999/xlink">
<path d="M260.761,32.448L260.761,44.472L255.109,44.472L255.109,32.448C255.109,26.436 259.717,21.108 265.873,21.108C272.029,21.108 276.637,26.436 276.637,32.448L276.637,44.472L270.985,44.472L270.985,32.448C270.985,29.568 268.897,26.796 265.873,26.796C262.849,26.796 260.761,29.568 260.761,32.448ZM143.581,44.472L143.581,39.324L153.841,39.324L153.841,44.472L159.529,44.472L159.529,32.52C159.529,26.22 154.669,21.144 148.693,21.144C142.717,21.144 137.857,26.22 137.857,32.52L137.857,44.472L143.581,44.472ZM99.409,35.94L99.409,44.472L93.685,44.472L93.685,21.684L99.409,21.684L99.409,30.216L108.265,30.216L108.265,21.684L113.989,21.684L113.989,44.472L108.265,44.472L108.265,35.94L99.409,35.94ZM136.057,38.748L136.057,44.472L126.625,44.472C120.433,44.472 115.789,39.108 115.789,33.096C115.789,27.048 120.433,21.684 126.625,21.684L136.057,21.684L136.057,27.408L126.625,27.408C124.717,27.408 123.061,28.596 122.197,30.216L131.773,30.216L131.773,35.94L122.197,35.94C123.061,37.596 124.717,38.748 126.625,38.748L136.057,38.748ZM143.581,33.636L153.841,33.636L153.841,32.52C153.841,29.388 151.537,26.832 148.693,26.832C145.885,26.832 143.581,29.388 143.581,32.52L143.581,33.636ZM172.165,44.472C178.141,44.472 183.001,39.36 183.001,33.096C183.001,26.796 178.141,21.684 172.165,21.684L161.329,21.684L161.329,44.472L172.165,44.472ZM167.053,38.748L172.165,38.748C175.009,38.748 177.313,36.228 177.313,33.096C177.313,29.964 175.009,27.408 172.165,27.408L167.053,27.408L167.053,38.748ZM190.453,44.472L190.453,39.684L197.437,39.684C202.333,39.684 205.969,35.544 205.969,30.792C205.969,26.04 202.333,21.864 197.437,21.864L184.801,21.864L184.801,44.472L190.453,44.472ZM190.453,34.032L197.437,34.032C199.165,34.032 200.317,32.376 200.317,30.792C200.317,29.208 199.165,27.516 197.437,27.516L190.453,27.516L190.453,34.032ZM213.493,44.472L213.493,35.94L222.349,35.94L222.349,44.472L228.073,44.472L228.073,21.684L222.349,21.684L222.349,30.216L213.493,30.216L213.493,21.684L207.769,21.684L207.769,44.472L213.493,44.472ZM253.309,33.204C253.309,39.684 248.197,45.228 241.609,45.228C235.021,45.228 229.873,39.684 229.873,33.204C229.873,26.688 235.021,21.18 241.609,21.18C248.197,21.18 253.309,26.688 253.309,33.204ZM241.609,39.54C238.117,39.54 235.525,36.552 235.525,33.204C235.525,29.82 238.153,26.832 241.609,26.832C245.065,26.832 247.657,29.82 247.657,33.204C247.657,36.552 245.065,39.54 241.609,39.54ZM298.705,44.472L298.705,38.748L289.273,38.748C287.365,38.748 285.709,37.596 284.845,35.94L294.421,35.94L294.421,30.216L284.845,30.216C285.709,28.596 287.365,27.408 289.273,27.408L298.705,27.408L298.705,21.684L289.273,21.684C283.081,21.684 278.437,27.048 278.437,33.096C278.437,39.108 283.081,44.472 289.273,44.472L298.705,44.472ZM311.845,38.676C310.693,41.736 307.489,44.472 304.105,44.472L300.505,44.472L300.505,38.82L304.105,38.82C305.041,38.82 306.229,37.488 306.517,36.696L309.901,27.66C311.089,24.456 314.509,21.864 317.965,21.864L321.925,21.864L321.925,27.516L317.965,27.516C316.885,27.516 315.553,28.668 315.193,29.64L311.845,38.676Z" clip-rule="evenodd" fill-rule="evenodd" fill="#FFFFFF"/>
<path d="M32.785,0L65.57,23.82L53.047,62.361L12.523,62.361L0,23.82L32.785,0ZM60.867,25.346L32.785,4.944L4.701,25.346L15.427,58.36L50.141,58.36L60.867,25.346Z" clip-rule="evenodd" fill-rule="evenodd" fill="#FFFFFF"/>
<path d="M32.785,12L54.157,27.528L45.994,52.652L19.576,52.652L11.413,27.528L32.785,12ZM49.453,29.054L32.785,16.944L16.115,29.054L22.481,48.652L43.087,48.652L49.453,29.054Z" clip-rule="evenodd" fill-rule="evenodd" fill="#FF6565"/>
<path d="M32.785,26.472L40.393,32L37.487,40.944L28.083,40.944L25.176,32L32.785,26.472Z" clip-rule="evenodd" fill-rule="evenodd" fill="#FFFFFF"/>
</svg>
