<svg width="322" height="64" viewBox="0 0 322 64" fill="none" xmlns="http://www.w3.org/2000/svg" xmlns:xlink="http://www.w3.org/1999/xlink">
<path d="M259.976,31.976L259.976,44L254.324,44L254.324,31.976C254.324,25.964 258.932,20.636 265.088,20.636C271.244,20.636 275.852,25.964 275.852,31.976L275.852,44L270.2,44L270.2,31.976C270.2,29.096 268.112,26.324 265.088,26.324C262.064,26.324 259.976,29.096 259.976,31.976ZM142.796,44L142.796,38.852L153.056,38.852L153.056,44L158.744,44L158.744,32.048C158.744,25.748 153.884,20.672 147.908,20.672C141.932,20.672 137.072,25.748 137.072,32.048L137.072,44L142.796,44ZM98.624,35.468L98.624,44L92.9,44L92.9,21.212L98.624,21.212L98.624,29.744L107.48,29.744L107.48,21.212L113.204,21.212L113.204,44L107.48,44L107.48,35.468L98.624,35.468ZM135.272,38.276L135.272,44L125.84,44C119.648,44 115.004,38.636 115.004,32.624C115.004,26.576 119.648,21.212 125.84,21.212L135.272,21.212L135.272,26.936L125.84,26.936C123.932,26.936 122.276,28.124 121.412,29.744L130.988,29.744L130.988,35.468L121.412,35.468C122.276,37.124 123.932,38.276 125.84,38.276L135.272,38.276ZM142.796,33.164L153.056,33.164L153.056,32.048C153.056,28.916 150.752,26.36 147.908,26.36C145.1,26.36 142.796,28.916 142.796,32.048L142.796,33.164ZM171.38,44C177.356,44 182.216,38.888 182.216,32.624C182.216,26.324 177.356,21.212 171.38,21.212L160.544,21.212L160.544,44L171.38,44ZM166.268,38.276L171.38,38.276C174.224,38.276 176.528,35.756 176.528,32.624C176.528,29.492 174.224,26.936 171.38,26.936L166.268,26.936L166.268,38.276ZM189.668,44L189.668,39.212L196.652,39.212C201.548,39.212 205.184,35.072 205.184,30.32C205.184,25.568 201.548,21.392 196.652,21.392L184.016,21.392L184.016,44L189.668,44ZM189.668,33.56L196.652,33.56C198.38,33.56 199.532,31.904 199.532,30.32C199.532,28.736 198.38,27.044 196.652,27.044L189.668,27.044L189.668,33.56ZM212.708,44L212.708,35.468L221.564,35.468L221.564,44L227.288,44L227.288,21.212L221.564,21.212L221.564,29.744L212.708,29.744L212.708,21.212L206.984,21.212L206.984,44L212.708,44ZM252.524,32.732C252.524,39.212 247.412,44.756 240.824,44.756C234.236,44.756 229.088,39.212 229.088,32.732C229.088,26.216 234.236,20.708 240.824,20.708C247.412,20.708 252.524,26.216 252.524,32.732ZM240.824,39.068C237.332,39.068 234.74,36.08 234.74,32.732C234.74,29.348 237.368,26.36 240.824,26.36C244.28,26.36 246.872,29.348 246.872,32.732C246.872,36.08 244.28,39.068 240.824,39.068ZM297.92,44L297.92,38.276L288.488,38.276C286.58,38.276 284.924,37.124 284.06,35.468L293.636,35.468L293.636,29.744L284.06,29.744C284.924,28.124 286.58,26.936 288.488,26.936L297.92,26.936L297.92,21.212L288.488,21.212C282.296,21.212 277.652,26.576 277.652,32.624C277.652,38.636 282.296,44 288.488,44L297.92,44ZM311.06,38.204C309.908,41.264 306.704,44 303.32,44L299.72,44L299.72,38.348L303.32,38.348C304.256,38.348 305.444,37.016 305.732,36.224L309.116,27.188C310.304,23.984 313.724,21.392 317.18,21.392L321.14,21.392L321.14,27.044L317.18,27.044C316.1,27.044 314.768,28.196 314.408,29.168L311.06,38.204Z" clip-rule="evenodd" fill-rule="evenodd" fill="#FFFFFF"/>
<path d="M32,-0.472L64.785,23.347L52.262,61.888L11.738,61.888L-0.785,23.347L32,-0.472ZM60.082,24.874L32,4.472L3.916,24.874L14.642,57.888L49.356,57.888L60.082,24.874Z" clip-rule="evenodd" fill-rule="evenodd" fill="#FFFFFF"/>
<path d="M32,11.528L53.372,27.056L45.209,52.18L18.791,52.18L10.628,27.056L32,11.528ZM48.668,28.582L32,16.472L15.33,28.582L21.696,48.18L42.302,48.18L48.668,28.582Z" clip-rule="evenodd" fill-rule="evenodd" fill="#FF6565"/>
<path d="M32,26L39.608,31.528L36.702,40.472L27.298,40.472L24.392,31.528L32,26Z" clip-rule="evenodd" fill-rule="evenodd" fill="#FFFFFF"/>
</svg>
