<svg width="336" height="64" viewBox="0 0 336 64" fill="none" xmlns="http://www.w3.org/2000/svg" xmlns:xlink="http://www.w3.org/1999/xlink">
<path d="M270.564,32.448L270.564,44.472L264.699,44.472L264.699,32.448C264.699,26.436 269.48,21.108 275.868,21.108C282.255,21.108 287.036,26.436 287.036,32.448L287.036,44.472L281.172,44.472L281.172,32.448C281.172,29.568 279.006,26.796 275.868,26.796C272.73,26.796 270.564,29.568 270.564,32.448ZM148.979,44.472L148.979,39.324L159.624,39.324L159.624,44.472L165.526,44.472L165.526,32.52C165.526,26.22 160.483,21.144 154.283,21.144C148.082,21.144 143.039,26.22 143.039,32.52L143.039,44.472L148.979,44.472ZM141.172,38.748L141.172,44.472L131.385,44.472C124.96,44.472 120.142,39.108 120.142,33.096C120.142,27.048 124.96,21.684 131.385,21.684L141.172,21.684L141.172,27.408L131.385,27.408C129.405,27.408 127.687,28.596 126.791,30.216L136.727,30.216L136.727,35.94L126.791,35.94C127.687,37.596 129.405,38.748 131.385,38.748L141.172,38.748ZM103.146,35.94L103.146,44.472L97.207,44.472L97.207,21.684L103.146,21.684L103.146,30.216L112.335,30.216L112.335,21.684L118.274,21.684L118.274,44.472L112.335,44.472L112.335,35.94L103.146,35.94ZM148.979,33.636L159.624,33.636L159.624,32.52C159.624,29.388 157.234,26.832 154.283,26.832C151.369,26.832 148.979,29.388 148.979,32.52L148.979,33.636ZM178.637,44.472C184.838,44.472 189.88,39.36 189.88,33.096C189.88,26.796 184.838,21.684 178.637,21.684L167.394,21.684L167.394,44.472L178.637,44.472ZM173.333,38.748L178.637,38.748C181.588,38.748 183.979,36.228 183.979,33.096C183.979,29.964 181.588,27.408 178.637,27.408L173.333,27.408L173.333,38.748ZM197.613,44.472L197.613,39.684L204.859,39.684C209.939,39.684 213.712,35.544 213.712,30.792C213.712,26.04 209.939,21.864 204.859,21.864L191.748,21.864L191.748,44.472L197.613,44.472ZM197.613,34.032L204.859,34.032C206.652,34.032 207.847,32.376 207.847,30.792C207.847,29.208 206.652,27.516 204.859,27.516L197.613,27.516L197.613,34.032ZM221.519,44.472L221.519,35.94L230.708,35.94L230.708,44.472L236.647,44.472L236.647,21.684L230.708,21.684L230.708,30.216L221.519,30.216L221.519,21.684L215.58,21.684L215.58,44.472L221.519,44.472ZM262.832,33.204C262.832,39.684 257.527,45.228 250.692,45.228C243.856,45.228 238.514,39.684 238.514,33.204C238.514,26.688 243.856,21.18 250.692,21.18C257.527,21.18 262.832,26.688 262.832,33.204ZM250.692,39.54C247.068,39.54 244.379,36.552 244.379,33.204C244.379,29.82 247.106,26.832 250.692,26.832C254.278,26.832 256.967,29.82 256.967,33.204C256.967,36.552 254.278,39.54 250.692,39.54ZM309.935,44.472L309.935,38.748L300.147,38.748C298.167,38.748 296.45,37.596 295.553,35.94L305.489,35.94L305.489,30.216L295.553,30.216C296.45,28.596 298.167,27.408 300.147,27.408L309.935,27.408L309.935,21.684L300.147,21.684C293.723,21.684 288.904,27.048 288.904,33.096C288.904,39.108 293.723,44.472 300.147,44.472L309.935,44.472ZM323.569,38.676C322.373,41.736 319.049,44.472 315.537,44.472L311.801,44.472L311.801,38.82L315.537,38.82C316.509,38.82 317.741,37.488 318.039,36.696L321.551,27.66C322.783,24.456 326.333,21.864 329.919,21.864L334.027,21.864L334.027,27.516L329.919,27.516C328.797,27.516 327.415,28.668 327.043,29.64L323.569,38.676Z" clip-rule="evenodd" fill-rule="evenodd" fill="#FFFFFF"/>
<path d="M34.017,0L68.035,23.82L55.041,62.361L12.994,62.361L0,23.82L34.017,0ZM63.155,25.346L34.017,4.944L4.878,25.346L16.007,58.36L52.026,58.36L63.155,25.346Z" clip-rule="evenodd" fill-rule="evenodd" fill="#FFFFFF"/>
<path d="M34.018,12L56.193,27.528L47.723,52.652L20.312,52.652L11.842,27.528L34.018,12ZM51.312,29.054L34.018,16.944L16.721,29.054L23.326,48.652L44.707,48.652L51.312,29.054Z" clip-rule="evenodd" fill-rule="evenodd" fill="#FF6565"/>
<path d="M34.017,26.472L41.912,32L38.896,40.944L29.138,40.944L26.123,32L34.017,26.472Z" clip-rule="evenodd" fill-rule="evenodd" fill="#FFFFFF"/>
</svg>
