<svg width="40" height="28" viewBox="0 0 40 28" fill="none" xmlns="http://www.w3.org/2000/svg" xmlns:xlink="http://www.w3.org/1999/xlink">
<path d="M0,2C0,0.895 0.895,0 2,0L38,0C39.105,0 40,0.895 40,2C40,3.105 39.105,4 38,4L2,4C0.895,4 0,3.105 0,2ZM0,14C0,12.895 0.895,12 2,12L24,12C25.105,12 26,12.895 26,14C26,15.105 25.105,16 24,16L2,16C0.895,16 0,15.105 0,14ZM2,24C0.895,24 0,24.895 0,26C0,27.105 0.895,28 2,28L34,28C35.105,28 36,27.105 36,26C36,24.895 35.105,24 34,24L2,24Z" clip-rule="evenodd" fill-rule="evenodd" fill="#FFFFFF"/>
</svg>
