<svg width="104" height="116" viewBox="0 0 104 116" fill="none" xmlns="http://www.w3.org/2000/svg" xmlns:xlink="http://www.w3.org/1999/xlink">
<path d="M103.32,3.244L103.32,25.228L103.32,25.252L103.32,78.604C103.32,82.804 101.232,86.668 97.44,89.524C93.912,92.164 89.304,93.628 84.408,93.628C79.512,93.628 74.904,92.164 71.376,89.524C67.584,86.668 65.496,82.804 65.496,78.604C65.496,74.404 67.584,70.54 71.376,67.684C74.904,65.044 79.536,63.58 84.408,63.58C89.016,63.58 93.408,64.876 96.84,67.252L96.84,29.668L37.824,48.436L37.824,99.508C37.824,103.708 35.736,107.572 31.944,110.428C28.416,113.068 23.808,114.532 18.912,114.532C14.016,114.532 9.408,113.068 5.88,110.428C2.088,107.572 0,103.708 0,99.508C0,95.308 2.088,91.444 5.88,88.588C9.408,85.948 14.04,84.484 18.912,84.484C23.52,84.484 27.912,85.78 31.344,88.156L31.344,46.084L31.344,46.06L31.344,24.052C31.344,22.636 32.256,21.388 33.6,20.956L99.096,0.148C100.08,-0.164 101.16,0.028 102,0.628C102.816,1.228 103.32,2.212 103.32,3.244ZM6.48,99.508C6.48,104.14 12.168,108.052 18.912,108.052C25.656,108.052 31.344,104.164 31.344,99.508C31.344,94.876 25.656,90.964 18.912,90.964C12.168,90.964 6.48,94.876 6.48,99.508ZM37.824,41.62L37.824,26.404L96.84,7.66L96.84,22.876L37.824,41.62ZM72,78.604C72,83.236 77.688,87.148 84.432,87.148C91.152,87.148 96.84,83.236 96.864,78.604C96.864,73.972 91.176,70.06 84.432,70.06C77.688,70.06 72,73.972 72,78.604Z" clip-rule="evenodd" fill-rule="evenodd" fill="#FF6565"/>
</svg>
