<svg width="190" height="132" viewBox="0 0 190 132" fill="none" xmlns="http://www.w3.org/2000/svg" xmlns:xlink="http://www.w3.org/1999/xlink">
<path d="M81.818,4.243C81.818,1.923 83.699,0.043 86.018,0.043C88.338,0.043 90.218,1.923 90.218,4.243L90.218,126.557C90.218,128.876 88.338,130.757 86.018,130.757C83.699,130.757 81.818,128.876 81.818,126.557L81.818,4.243ZM69.655,29.153C67.336,29.153 65.455,31.033 65.455,33.353L65.455,97.447C65.455,99.767 67.336,101.647 69.655,101.647C71.975,101.647 73.855,99.767 73.855,97.447L73.855,33.353C73.855,31.033 71.975,29.153 69.655,29.153ZM49.091,45.638C49.091,43.318 50.971,41.438 53.291,41.438C55.611,41.438 57.491,43.318 57.491,45.638L57.491,85.163C57.491,87.482 55.61,89.363 53.291,89.363C50.971,89.363 49.091,87.482 49.091,85.163L49.091,45.638ZM36.928,48.381C34.608,48.381 32.728,50.261 32.728,52.581L32.728,78.219C32.728,80.539 34.608,82.419 36.928,82.419C39.247,82.419 41.128,80.539 41.128,78.219L41.128,52.581C41.128,50.261 39.247,48.381 36.928,48.381ZM0,58.457C0,56.137 1.88,54.257 4.2,54.257C6.52,54.257 8.4,56.137 8.4,58.457L8.4,72.344C8.4,74.663 6.52,76.544 4.2,76.544C1.88,76.544 0,74.663 0,72.344L0,58.457ZM16.364,58.457C16.364,56.137 18.244,54.257 20.564,54.257C22.884,54.257 24.764,56.137 24.764,58.457L24.764,72.344C24.764,74.663 22.883,76.544 20.564,76.544C18.244,76.544 16.364,74.663 16.364,72.344L16.364,58.457ZM102.382,10.458C100.063,10.458 98.182,12.338 98.182,14.658L98.182,116.142C98.182,118.462 100.063,120.342 102.382,120.342C104.702,120.342 106.582,118.462 106.582,116.142L106.582,14.658C106.582,12.338 104.702,10.458 102.382,10.458ZM114.545,35.489C114.545,33.169 116.426,31.289 118.745,31.289C121.065,31.289 122.945,33.169 122.945,35.489L122.945,95.311C122.945,97.63 121.065,99.511 118.745,99.511C116.426,99.511 114.545,97.63 114.545,95.311L114.545,35.489ZM135.11,43.84C132.79,43.84 130.91,45.721 130.91,48.04L130.91,82.759C130.91,85.078 132.79,86.959 135.11,86.959C137.429,86.959 139.31,85.078 139.31,82.759L139.31,48.04C139.31,45.721 137.429,43.84 135.11,43.84ZM147.274,53.383C147.274,51.063 149.154,49.183 151.474,49.183C153.793,49.183 155.674,51.063 155.674,53.383L155.674,77.418C155.674,79.738 153.793,81.618 151.474,81.618C149.154,81.618 147.274,79.738 147.274,77.418L147.274,53.383ZM167.837,54.257C165.517,54.257 163.637,56.137 163.637,58.457L163.637,72.344C163.637,74.663 165.517,76.544 167.837,76.544C170.156,76.544 172.037,74.663 172.037,72.344L172.037,58.457C172.037,56.137 170.156,54.257 167.837,54.257ZM180,58.457C180,56.137 181.88,54.257 184.2,54.257C186.52,54.257 188.4,56.137 188.4,58.457L188.4,72.344C188.4,74.663 186.52,76.544 184.2,76.544C181.88,76.544 180,74.663 180,72.344L180,58.457Z" clip-rule="evenodd" fill-rule="evenodd" fill="#FF6565"/>
</svg>
