<svg width="190" height="132" viewBox="0 0 190 132" fill="none" xmlns="http://www.w3.org/2000/svg" xmlns:xlink="http://www.w3.org/1999/xlink">
<path d="M90.208,3.943C90.054,1.763 88.237,0.043 86.018,0.043C83.699,0.043 81.818,1.923 81.818,4.243L81.818,126.557L81.829,126.857C81.983,129.036 83.8,130.757 86.018,130.757C88.338,130.757 90.218,128.876 90.218,126.557L90.218,4.243L90.208,3.943ZM106.572,14.358C106.418,12.178 104.601,10.458 102.382,10.458C100.063,10.458 98.182,12.338 98.182,14.658L98.182,116.142L98.193,116.442C98.347,118.622 100.163,120.342 102.382,120.342C104.702,120.342 106.582,118.462 106.582,116.142L106.582,14.658L106.572,14.358ZM69.655,29.153C71.874,29.153 73.691,30.873 73.845,33.053L73.855,33.353L73.855,97.447C73.855,99.767 71.975,101.647 69.655,101.647C67.436,101.647 65.62,99.927 65.466,97.747L65.455,97.447L65.455,33.353C65.455,31.033 67.336,29.153 69.655,29.153ZM122.935,35.189C122.781,33.009 120.964,31.289 118.745,31.289C116.426,31.289 114.545,33.169 114.545,35.489L114.545,95.311L114.556,95.611C114.71,97.79 116.527,99.511 118.745,99.511C121.065,99.511 122.945,97.63 122.945,95.311L122.945,35.489L122.935,35.189ZM53.291,41.438C55.51,41.438 57.327,43.158 57.48,45.338L57.491,45.638L57.491,85.163C57.491,87.482 55.61,89.363 53.291,89.363C51.072,89.363 49.255,87.642 49.101,85.463L49.091,85.163L49.091,45.638C49.091,43.318 50.971,41.438 53.291,41.438ZM139.299,47.74C139.145,45.561 137.329,43.84 135.11,43.84C132.79,43.84 130.91,45.721 130.91,48.04L130.91,82.759L130.92,83.059C131.074,85.238 132.891,86.959 135.11,86.959C137.429,86.959 139.31,85.078 139.31,82.759L139.31,48.04L139.299,47.74ZM36.928,48.381C39.146,48.381 40.963,50.101 41.117,52.281L41.128,52.581L41.128,78.219C41.128,80.539 39.247,82.419 36.928,82.419C34.709,82.419 32.892,80.699 32.738,78.519L32.728,78.219L32.728,52.581C32.728,50.261 34.608,48.381 36.928,48.381ZM155.663,53.083C155.509,50.903 153.692,49.183 151.474,49.183C149.154,49.183 147.274,51.063 147.274,53.383L147.274,77.418L147.284,77.718C147.438,79.898 149.255,81.618 151.474,81.618C153.793,81.618 155.674,79.738 155.674,77.418L155.674,53.383L155.663,53.083ZM4.2,54.257C6.419,54.257 8.236,55.977 8.389,58.157L8.4,58.457L8.4,72.344C8.4,74.663 6.52,76.544 4.2,76.544C1.981,76.544 0.164,74.823 0.011,72.644L0,72.344L0,58.457C0,56.137 1.88,54.257 4.2,54.257ZM24.753,58.157C24.6,55.977 22.783,54.257 20.564,54.257C18.244,54.257 16.364,56.137 16.364,58.457L16.364,72.344L16.374,72.644C16.528,74.823 18.345,76.544 20.564,76.544C22.883,76.544 24.764,74.663 24.764,72.344L24.764,58.457L24.753,58.157ZM167.837,54.257C170.056,54.257 171.872,55.977 172.026,58.157L172.037,58.457L172.037,72.344C172.037,74.663 170.156,76.544 167.837,76.544C165.618,76.544 163.801,74.823 163.647,72.644L163.637,72.344L163.637,58.457C163.637,56.137 165.517,54.257 167.837,54.257ZM188.389,58.157C188.236,55.977 186.419,54.257 184.2,54.257C181.88,54.257 180,56.137 180,58.457L180,72.344L180.011,72.644C180.164,74.823 181.981,76.544 184.2,76.544C186.52,76.544 188.4,74.663 188.4,72.344L188.4,58.457L188.389,58.157Z" clip-rule="evenodd" fill-rule="evenodd" fill="#FF6565"/>
</svg>
