<svg width="136" height="154" viewBox="0 0 136 154" fill="none" xmlns="http://www.w3.org/2000/svg" xmlns:xlink="http://www.w3.org/1999/xlink">
<path d="M124.883,11.545C122.667,4.722 116.201,0 108.976,0C107.416,0 105.862,0.221 104.355,0.657L12.053,27.396L11.475,27.575C7.465,28.893 4.148,31.649 2.088,35.386C-0.068,39.301 -0.574,43.809 0.662,48.077L5.688,65.428L5.688,136.904L5.696,137.414C5.966,146.385 13.348,153.6 22.383,153.6L58.432,153.6L58.721,153.586C60.242,153.441 61.432,152.16 61.432,150.6C61.432,148.943 60.089,147.6 58.432,147.6L22.384,147.6L21.944,147.591C16.249,147.359 11.688,142.655 11.688,136.904L11.688,96.079L129.177,96.079L129.177,136.904L129.168,137.345C128.936,143.039 124.232,147.6 118.481,147.6L82.432,147.6L82.143,147.614C80.623,147.759 79.432,149.04 79.432,150.6C79.432,152.257 80.776,153.6 82.432,153.6L118.481,153.6L118.991,153.592C127.962,153.322 135.177,145.94 135.177,136.904L135.177,65.003L135.163,64.714C135.018,63.192 133.736,62.003 132.177,62.003L29.825,62.003L128.135,33.524L128.416,33.427C129.056,33.17 129.592,32.699 129.928,32.089C130.312,31.392 130.404,30.572 130.182,29.808L125.038,12.048L124.883,11.545ZM73.432,150.6C73.432,148.948 72.085,147.6 70.432,147.6C68.78,147.6 67.432,148.948 67.432,150.6C67.432,152.252 68.78,153.6 70.432,153.6C72.085,153.6 73.432,152.252 73.432,150.6ZM60.32,103.719C61.155,103.237 62.165,103.189 63.035,103.575L63.32,103.719L89.677,118.936C90.605,119.471 91.177,120.462 91.177,121.534C91.177,122.509 90.704,123.416 89.921,123.975L89.677,124.132L63.32,139.348C62.856,139.616 62.338,139.751 61.82,139.751C61.302,139.751 60.784,139.616 60.32,139.348C59.476,138.861 58.927,137.998 58.834,137.041L58.82,136.751L58.82,106.317C58.82,105.245 59.392,104.255 60.32,103.719ZM64.82,131.555L64.82,111.513L82.177,121.534L64.82,131.555ZM108.602,68.003L92.024,68.003L79.277,90.079L95.857,90.079L108.602,68.003ZM68.516,68.003L85.094,68.003L72.349,90.079L55.769,90.079L68.516,68.003ZM61.588,68.003L45.008,68.003L32.263,90.079L48.841,90.079L61.588,68.003ZM11.688,68.003L38.08,68.003L25.335,90.079L11.688,90.079L11.688,68.003ZM129.177,68.003L115.53,68.003L102.785,90.079L129.177,90.079L129.177,68.003ZM13.723,33.159L15.485,32.648L15.669,32.888L15.879,33.111L37.223,53.612L10.735,61.286L6.425,46.409L6.29,45.895C5.679,43.32 6.048,40.636 7.344,38.28C8.727,35.769 10.992,33.95 13.723,33.159ZM38.065,26.108L22.072,30.741L43.417,51.241L43.627,51.465L43.81,51.704L59.803,47.072L38.459,26.571L38.248,26.347L38.065,26.108ZM44.651,24.2L60.643,19.568L60.827,19.806L61.037,20.031L82.382,40.53L66.389,45.164L66.206,44.925L65.995,44.701L44.651,24.2ZM83.223,13.027L67.23,17.659L88.575,38.16L88.786,38.383L88.969,38.623L104.961,33.99L83.617,13.489L83.406,13.265L83.223,13.027ZM106.607,6.27C107.386,6.091 108.18,6 108.976,6C113.723,6 117.957,9.173 119.275,13.718L123.585,28.595L111.548,32.081L111.365,31.842L111.153,31.618L89.81,11.119L106.025,6.421L106.607,6.27Z" clip-rule="evenodd" fill-rule="evenodd" fill="#FF6565"/>
</svg>
