<svg width="136" height="154" viewBox="0 0 136 154" fill="none" xmlns="http://www.w3.org/2000/svg" xmlns:xlink="http://www.w3.org/1999/xlink">
<path d="M132.177,62.003L29.825,62.003L128.135,33.524C128.899,33.302 129.544,32.786 129.928,32.089C130.312,31.392 130.404,30.572 130.182,29.808L125.038,12.048C122.982,4.955 116.378,0 108.976,0C107.416,0 105.862,0.221 104.355,0.657L12.053,27.396C7.784,28.632 4.246,31.471 2.088,35.386C-0.068,39.301 -0.574,43.809 0.662,48.077L5.688,65.428L5.688,136.904C5.688,146.111 13.178,153.6 22.383,153.6L58.432,153.6C60.089,153.6 61.432,152.257 61.432,150.6C61.432,148.943 60.089,147.6 58.432,147.6L22.384,147.6C16.486,147.6 11.688,142.802 11.688,136.904L11.688,96.079L27.057,96.079L27.064,96.079L27.07,96.079L50.564,96.079L50.571,96.079L50.578,96.079L74.072,96.079L74.079,96.079L74.086,96.079L97.58,96.079L97.587,96.079L97.593,96.079L129.177,96.079L129.177,136.904C129.177,142.802 124.379,147.6 118.481,147.6L82.432,147.6C80.776,147.6 79.432,148.943 79.432,150.6C79.432,152.257 80.776,153.6 82.432,153.6L118.481,153.6C127.687,153.6 135.177,146.111 135.177,136.904L135.177,65.003C135.177,63.346 133.834,62.003 132.177,62.003ZM79.277,90.079L92.024,68.003L108.602,68.003L95.857,90.079L79.277,90.079ZM68.516,68.003L55.769,90.079L72.349,90.079L85.094,68.003L68.516,68.003ZM32.263,90.079L45.008,68.003L61.588,68.003L48.841,90.079L32.263,90.079ZM22.072,30.741L43.417,51.241C43.566,51.384 43.698,51.54 43.81,51.704L59.803,47.072L38.459,26.571C38.309,26.427 38.177,26.272 38.065,26.108L22.072,30.741ZM83.617,13.489L104.961,33.99L88.969,38.623C88.856,38.459 88.725,38.303 88.575,38.16L67.23,17.659L83.223,13.027C83.335,13.191 83.467,13.345 83.617,13.489ZM82.382,40.53L61.037,20.031C60.888,19.887 60.757,19.731 60.643,19.568L44.651,24.2L65.995,44.701C66.145,44.844 66.277,45 66.389,45.164L82.382,40.53ZM106.025,6.421C106.989,6.142 107.981,6 108.976,6C113.723,6 117.957,9.173 119.275,13.718L123.585,28.595L111.548,32.081C111.435,31.917 111.303,31.762 111.153,31.618L89.81,11.119L106.025,6.421ZM13.723,33.159C10.992,33.95 8.727,35.769 7.344,38.28C5.961,40.793 5.634,43.679 6.425,46.409L10.736,61.286L37.223,53.612L15.879,33.111C15.73,32.968 15.599,32.812 15.485,32.648L13.723,33.159ZM11.688,68.003L38.08,68.003L25.335,90.079L11.688,90.079L11.688,68.003ZM115.53,68.003L102.785,90.079L129.177,90.079L129.177,68.003L115.53,68.003ZM89.677,118.936C90.605,119.471 91.177,120.462 91.177,121.534C91.177,122.606 90.605,123.596 89.677,124.132L63.32,139.348C62.856,139.616 62.338,139.751 61.82,139.751C61.302,139.751 60.784,139.616 60.32,139.348C59.392,138.812 58.82,137.822 58.82,136.751L58.82,106.317C58.82,105.245 59.392,104.255 60.32,103.719C61.248,103.184 62.392,103.184 63.32,103.719L89.677,118.936ZM64.82,111.513L64.82,131.555L82.177,121.534L64.82,111.513ZM67.432,150.6C67.432,148.948 68.78,147.6 70.432,147.6C72.085,147.6 73.432,148.948 73.432,150.6C73.432,152.252 72.085,153.6 70.432,153.6C68.78,153.6 67.432,152.252 67.432,150.6Z" clip-rule="evenodd" fill-rule="evenodd" fill="#FF6565"/>
</svg>
